<svg width="300" height="265" viewBox="0 0 300 265" fill="none" xmlns="http://www.w3.org/2000/svg">
<rect x="5" y="5" width="290" height="255" stroke="black" stroke-width="10"/>
<rect x="25" y="202.635" width="250" height="39.3653" fill="black"/>
<rect x="112.51" y="173.784" width="162.49" height="28.8505" fill="black"/>
<rect x="124.819" y="164.594" width="150.181" height="23.615" fill="black"/>
<rect x="224.086" y="160.625" width="50.9144" height="22.6165" fill="black"/>
<rect x="83.4402" y="174.93" width="66.5598" height="39.3653" fill="black"/>
<rect x="53.6487" y="183.241" width="53.8551" height="42.7901" fill="black"/>
<rect x="36.0847" y="197.045" width="54.3334" height="10.453" fill="black"/>
<rect x="40.7905" y="189.386" width="54.3334" height="10.453" fill="black"/>
<rect x="29.6497" y="199.839" width="56.5766" height="3.69814" fill="black"/>
<rect x="31.8591" y="197.99" width="56.5766" height="3.69814" fill="black"/>
<rect x="25.3604" y="202.271" width="56.5766" height="3.69814" fill="black"/>
<rect x="27.4106" y="200.806" width="59.1051" height="2.93061" fill="black"/>
<rect x="26.144" y="201.688" width="43.8421" height="2.93061" fill="black"/>
<path d="M81.2394 149.821L110.914 175.153L25 202.635L81.2394 149.821Z" fill="black"/>
<path d="M201.024 92L275 160.459L110.798 175.116L201.024 92Z" fill="black"/>
<circle cx="51.0664" cy="55.5068" r="30" fill="black"/>
</svg>
